<?xml version="1.0" encoding="UTF-8" standalone="no"?>
<!DOCTYPE svg PUBLIC "-//W3C//DTD SVG 20010904//EN"
              "http://www.w3.org/TR/2001/REC-SVG-20010904/DTD/svg10.dtd">

<svg xmlns="http://www.w3.org/2000/svg"
     width="1.66667in" height="1.66667in"
     viewBox="0 0 500 500">
  <path id="Selection"
        fill="white" stroke="white" stroke-width="1"
        d="M 0.00,0.00
           C 0.31,9.05 7.92,13.92 14.00,20.00
             14.00,20.00 52.00,58.00 52.00,58.00
             52.00,58.00 63.99,70.00 63.99,70.00
             65.46,71.53 67.90,73.75 67.99,76.00
             68.13,79.15 60.04,87.27 57.75,90.00
             48.18,101.45 40.39,113.07 33.00,126.00
             15.25,157.05 4.52,192.35 1.91,228.00
             1.91,228.00 1.00,240.00 1.00,240.00
             1.00,240.00 1.00,260.00 1.00,260.00
             1.03,281.01 7.24,312.07 14.08,332.00
             38.87,404.30 95.70,461.13 168.00,485.92
             199.87,496.85 228.65,499.39 262.00,499.00
             262.00,499.00 272.00,498.09 272.00,498.09
             308.76,495.40 344.04,484.12 376.00,465.85
             387.99,459.00 399.40,451.11 410.00,442.25
             412.73,439.96 420.85,431.87 424.00,432.01
             426.25,432.10 428.47,434.54 430.00,436.01
             430.00,436.01 442.00,448.00 442.00,448.00
             442.00,448.00 480.00,486.00 480.00,486.00
             486.08,492.08 490.95,499.69 500.00,500.00
             499.69,490.95 492.08,486.08 486.00,480.00
             486.00,480.00 448.00,442.00 448.00,442.00
             448.00,442.00 436.01,430.00 436.01,430.00
             434.54,428.47 432.10,426.25 432.01,424.00
             431.87,420.85 439.96,412.73 442.25,410.00
             451.82,398.55 459.61,386.93 467.00,374.00
             484.75,342.95 495.48,307.65 498.09,272.00
             498.09,272.00 499.00,260.00 499.00,260.00
             499.00,260.00 499.00,240.00 499.00,240.00
             498.97,218.99 492.76,187.93 485.92,168.00
             460.98,95.27 404.73,39.02 332.00,14.08
             300.13,3.15 271.35,0.61 238.00,1.00
             238.00,1.00 228.00,1.91 228.00,1.91
             191.24,4.60 155.96,15.88 124.00,34.15
             112.01,41.00 100.60,48.89 90.00,57.75
             87.27,60.04 79.15,68.13 76.00,67.99
             73.75,67.90 71.53,65.46 70.00,63.99
             70.00,63.99 58.00,52.00 58.00,52.00
             58.00,52.00 20.00,14.00 20.00,14.00
             13.92,7.92 9.05,0.31 0.00,0.00 Z
           M 237.00,5.28
           C 257.28,3.40 287.17,7.17 307.00,12.13
             396.06,34.39 465.02,101.61 487.37,191.00
             491.07,205.78 494.82,226.87 495.00,242.00
             495.80,310.85 470.22,377.92 420.00,425.96
             400.62,444.50 379.89,458.31 356.00,470.25
             320.71,487.89 281.24,495.46 242.00,495.00
             242.00,495.00 233.00,494.17 233.00,494.17
             214.14,492.34 197.20,489.62 179.00,484.02
             142.09,472.67 107.94,452.69 80.00,425.96
             29.78,377.92 4.20,310.85 5.00,242.00
             5.00,242.00 5.91,232.00 5.91,232.00
             7.92,204.56 14.73,177.18 25.86,152.00
             53.88,88.63 106.51,40.54 172.00,18.08
             186.40,13.14 202.91,9.32 218.00,7.28
             218.00,7.28 237.00,5.28 237.00,5.28 Z
           M 138.00,339.00
           C 138.00,339.00 170.58,381.00 170.58,381.00
             170.58,381.00 221.20,446.00 221.20,446.00
             221.20,446.00 242.21,473.00 242.21,473.00
             244.39,475.79 248.79,482.35 252.02,483.34
             256.68,484.78 256.94,480.19 256.95,477.00
             256.95,477.00 256.95,461.00 256.95,461.00
             256.95,461.00 256.00,451.00 256.00,451.00
             256.00,451.00 256.00,425.00 256.00,425.00
             256.00,425.00 255.00,408.00 255.00,408.00
             255.00,408.00 254.00,342.00 254.00,342.00
             254.00,342.00 253.00,325.00 253.00,325.00
             253.00,325.00 253.00,301.00 253.00,301.00
             253.00,301.00 252.00,285.00 252.00,285.00
             252.00,285.00 252.00,271.00 252.00,271.00
             252.00,271.00 467.00,271.00 467.00,271.00
             469.46,271.00 474.23,271.51 475.34,268.70
             477.23,263.98 470.69,264.02 468.00,264.00
             468.00,264.00 423.00,264.00 423.00,264.00
             423.00,264.00 252.00,264.00 252.00,264.00
             252.00,264.00 251.00,242.00 251.00,242.00
             251.00,242.00 251.00,218.00 251.00,218.00
             251.00,218.00 250.00,201.00 250.00,201.00
             250.00,201.00 250.00,177.00 250.00,177.00
             250.00,177.00 249.00,160.00 249.00,160.00
             249.00,160.00 249.00,136.00 249.00,136.00
             249.00,136.00 248.00,121.00 248.00,121.00
             248.00,121.00 248.00,94.00 248.00,94.00
             248.00,94.00 247.00,77.00 247.00,77.00
             247.00,77.00 247.00,53.00 247.00,53.00
             247.00,53.00 246.00,38.00 246.00,38.00
             246.00,38.00 246.00,32.00 246.00,32.00
             246.00,29.55 246.51,24.76 243.70,23.66
             239.10,21.85 237.33,29.06 236.33,32.00
             236.33,32.00 224.81,65.00 224.81,65.00
             224.81,65.00 208.31,113.00 208.31,113.00
             208.31,113.00 176.67,204.00 176.67,204.00
             176.67,204.00 160.81,250.00 160.81,250.00
             156.86,260.42 157.92,263.83 149.00,264.05
             149.00,264.05 93.00,264.05 93.00,264.05
             93.00,264.05 88.06,264.05 88.06,264.05
             78.16,265.82 91.62,279.76 94.12,283.00
             94.12,283.00 121.42,318.00 121.42,318.00
             123.95,321.24 131.10,329.23 131.37,333.00
             131.54,335.42 128.27,344.19 127.33,347.00
             127.33,347.00 116.31,379.00 116.31,379.00
             114.86,383.07 110.82,393.24 110.34,397.00
             109.98,399.90 110.95,403.72 114.80,402.34
             118.20,401.13 120.86,390.50 122.19,387.00
             122.19,387.00 138.00,339.00 138.00,339.00 Z
           M 240.00,49.00
           C 240.00,49.00 240.00,81.00 240.00,81.00
             240.00,81.00 241.00,98.00 241.00,98.00
             241.00,98.00 241.00,123.00 241.00,123.00
             241.00,123.00 242.00,140.00 242.00,140.00
             242.00,140.00 242.00,164.00 242.00,164.00
             242.00,164.00 243.00,181.00 243.00,181.00
             243.00,181.00 243.00,205.00 243.00,205.00
             243.00,205.00 244.00,222.00 244.00,222.00
             244.00,222.00 244.00,247.00 244.00,247.00
             244.00,247.00 245.00,264.00 245.00,264.00
             245.00,264.00 165.00,264.00 165.00,264.00
             165.00,264.00 180.00,219.00 180.00,219.00
             180.00,219.00 216.33,114.00 216.33,114.00
             216.33,114.00 232.58,67.00 232.58,67.00
             232.58,67.00 240.00,49.00 240.00,49.00 Z
           M 154.00,271.00
           C 154.00,271.00 136.00,323.00 136.00,323.00
             136.00,323.00 112.79,294.00 112.79,294.00
             112.79,294.00 96.00,271.00 96.00,271.00
             96.00,271.00 154.00,271.00 154.00,271.00 Z
           M 245.00,271.00
           C 245.00,271.00 245.00,288.00 245.00,288.00
             245.00,288.00 246.00,305.00 246.00,305.00
             246.00,305.00 246.00,329.00 246.00,329.00
             246.00,329.00 247.00,346.00 247.00,346.00
             247.00,346.00 249.00,453.00 249.00,453.00
             249.00,453.00 250.00,469.00 250.00,469.00
             250.00,469.00 227.40,441.00 227.40,441.00
             227.40,441.00 177.58,377.00 177.58,377.00
             177.58,377.00 153.35,346.00 153.35,346.00
             151.26,343.30 144.03,334.48 143.02,332.00
             141.38,327.95 144.95,320.12 146.33,316.00
             146.33,316.00 157.05,285.00 157.05,285.00
             157.85,282.81 160.95,273.81 162.08,272.57
             163.90,270.58 167.52,271.00 170.00,271.00
             170.00,271.00 245.00,271.00 245.00,271.00 Z" />
</svg>
